<!-- Generated by IcoMoon.io -->
<svg viewBox="0 0 1024 1024" width="38" height="38" fill="currentColor">
<path d="M512 0a512 512 0 1 0 0 1024A512 512 0 0 0 512 0zM256 256h512c9.152 0 17.984 1.984 26.176 5.632L512 590.784 229.824 261.632A62.848 62.848 0 0 1 256 256z m-64 448V320l0.128-4.032 187.648 218.944-185.6 185.6A61.888 61.888 0 0 1 192 704z m576 64H256c-5.632 0-11.2-0.768-16.512-2.176L421.632 583.68l90.432 105.472L602.496 583.68l182.144 182.144a61.888 61.888 0 0 1-16.512 2.176z m64-64c0 5.632-0.768 11.2-2.176 16.512l-185.6-185.6 187.648-218.944L832 320v384z"></path>
</svg>
