<!-- Generated by IcoMoon.io -->
<svg viewBox="0 0 1024 1024" width="38" height="38" fill="currentColor">
<path d="M512 32.12c-265.004 0-479.88 220.23-479.88 492.090 0 217.446 137.536 401.684 328.202 466.81 23.994 4.498 32.778-10.712 32.778-23.78 0-11.782-0.428-42.632-0.642-83.764-133.466 29.778-161.744-65.984-161.744-65.984-21.852-56.772-53.344-71.982-53.344-71.982-43.49-30.636 3.214-29.992 3.214-29.992 48.202 3.428 73.482 50.772 73.482 50.772 42.846 75.196 112.258 53.558 139.68 40.918 4.284-31.706 16.71-53.558 30.42-65.77-106.474-12.426-218.516-54.63-218.516-243.152 0-53.772 18.638-97.69 49.274-131.966-4.928-12.426-21.424-62.556 4.714-130.252 0 0 40.276-13.282 131.966 50.344 38.348-10.926 79.266-16.282 120.184-16.496 40.704 0.214 81.836 5.57 120.184 16.496 91.692-63.626 131.752-50.344 131.752-50.344 26.136 67.698 9.64 117.828 4.714 130.252 30.636 34.492 49.274 78.408 49.274 131.966 0 188.952-112.258 230.514-219.16 242.724 17.138 15.21 32.564 45.202 32.564 91.048 0 65.77-0.642 118.898-0.642 134.966 0 13.068 8.57 28.492 32.992 23.566 191.094-64.912 328.418-249.152 328.418-466.382 0-271.86-214.874-492.090-479.88-492.090z"></path>
</svg>
