<!-- Generated by IcoMoon.io -->
<svg viewBox="0 0 1024 1024" width="38" height="38" fill="currentColor">
<path d="M21.332 512c0-270.988 219.68-490.666 490.668-490.666s490.666 219.68 490.666 490.666c0 270.988-219.678 490.666-490.666 490.666s-490.666-219.678-490.666-490.666zM960 512c0-247.424-200.576-448-448-448s-448 200.576-448 448c0 247.424 200.576 448 448 448s448-200.576 448-448zM768 597.332c47.128 0 85.332-38.206 85.332-85.332s-38.206-85.332-85.332-85.332c-47.128 0-85.332 38.204-85.332 85.332s38.206 85.332 85.332 85.332zM512 597.332c47.128 0 85.332-38.206 85.332-85.332s-38.206-85.332-85.332-85.332c-47.128 0-85.332 38.204-85.332 85.332s38.204 85.332 85.332 85.332zM255.998 597.332c47.128 0 85.332-38.206 85.332-85.332s-38.204-85.332-85.332-85.332c-47.128 0-85.332 38.204-85.332 85.332s38.204 85.332 85.332 85.332z"></path>
</svg>
